<mxfile host="65bd71144e">
    <diagram id="AhhxbqIvZ3k6Kg-f40mu" name="フレーム構造">
        <mxGraphModel dx="967" dy="509" grid="1" gridSize="10" guides="1" tooltips="1" connect="1" arrows="1" fold="1" page="1" pageScale="1" pageWidth="827" pageHeight="1169" math="0" shadow="0">
            <root>
                <mxCell id="0"/>
                <mxCell id="1" parent="0"/>
                <mxCell id="2" value="" style="rounded=0;whiteSpace=wrap;html=1;" vertex="1" parent="1">
                    <mxGeometry x="40" y="40" width="400" height="480" as="geometry"/>
                </mxCell>
                <mxCell id="95" value="" style="rounded=0;whiteSpace=wrap;html=1;dashed=1;fillColor=none;strokeColor=#FF0000;" vertex="1" parent="1">
                    <mxGeometry x="70" y="70" width="330" height="420" as="geometry"/>
                </mxCell>
                <mxCell id="3" value="" style="whiteSpace=wrap;html=1;aspect=fixed;fillColor=#eeeeee;strokeColor=#36393d;" vertex="1" parent="1">
                    <mxGeometry x="50" y="50" width="20" height="20" as="geometry"/>
                </mxCell>
                <mxCell id="5" value="" style="whiteSpace=wrap;html=1;aspect=fixed;fillColor=#eeeeee;strokeColor=#36393d;" vertex="1" parent="1">
                    <mxGeometry x="400" y="50" width="20" height="20" as="geometry"/>
                </mxCell>
                <mxCell id="6" value="" style="whiteSpace=wrap;html=1;aspect=fixed;fillColor=#eeeeee;strokeColor=#36393d;" vertex="1" parent="1">
                    <mxGeometry x="400" y="490" width="20" height="20" as="geometry"/>
                </mxCell>
                <mxCell id="7" value="" style="whiteSpace=wrap;html=1;aspect=fixed;fillColor=#eeeeee;strokeColor=#36393d;" vertex="1" parent="1">
                    <mxGeometry x="50" y="490" width="20" height="20" as="geometry"/>
                </mxCell>
                <mxCell id="13" value="" style="group" vertex="1" connectable="0" parent="1">
                    <mxGeometry x="80" y="80" width="160" height="40" as="geometry"/>
                </mxCell>
                <mxCell id="10" value="h1" style="rounded=0;whiteSpace=wrap;html=1;" vertex="1" parent="13">
                    <mxGeometry width="106.66666666666667" height="20" as="geometry"/>
                </mxCell>
                <mxCell id="11" value="h2" style="rounded=0;whiteSpace=wrap;html=1;" vertex="1" parent="13">
                    <mxGeometry x="106.66666666666667" width="53.333333333333336" height="20" as="geometry"/>
                </mxCell>
                <mxCell id="12" value="h3" style="rounded=0;whiteSpace=wrap;html=1;" vertex="1" parent="13">
                    <mxGeometry y="20" width="160" height="20" as="geometry"/>
                </mxCell>
                <mxCell id="14" value="c1" style="rounded=0;whiteSpace=wrap;html=1;" vertex="1" parent="1">
                    <mxGeometry x="290" y="100" width="46" height="20" as="geometry"/>
                </mxCell>
                <mxCell id="15" value="c2" style="rounded=0;whiteSpace=wrap;html=1;" vertex="1" parent="1">
                    <mxGeometry x="336" y="100" width="46" height="20" as="geometry"/>
                </mxCell>
                <mxCell id="16" value="" style="shape=table;html=1;whiteSpace=wrap;startSize=0;container=1;collapsible=0;childLayout=tableLayout;" vertex="1" parent="1">
                    <mxGeometry x="80" y="160" width="300" height="310" as="geometry"/>
                </mxCell>
                <mxCell id="17" value="" style="shape=tableRow;horizontal=0;startSize=0;swimlaneHead=0;swimlaneBody=0;top=0;left=0;bottom=0;right=0;collapsible=0;dropTarget=0;fillColor=none;points=[[0,0.5],[1,0.5]];portConstraint=eastwest;" vertex="1" parent="16">
                    <mxGeometry width="300" height="29" as="geometry"/>
                </mxCell>
                <mxCell id="18" value="m_0_0" style="shape=partialRectangle;html=1;whiteSpace=wrap;connectable=0;fillColor=none;top=0;left=0;bottom=0;right=0;overflow=hidden;" vertex="1" parent="17">
                    <mxGeometry width="60" height="29" as="geometry">
                        <mxRectangle width="60" height="29" as="alternateBounds"/>
                    </mxGeometry>
                </mxCell>
                <mxCell id="19" value="m_0_1" style="shape=partialRectangle;html=1;whiteSpace=wrap;connectable=0;fillColor=none;top=0;left=0;bottom=0;right=0;overflow=hidden;" vertex="1" parent="17">
                    <mxGeometry x="60" width="60" height="29" as="geometry">
                        <mxRectangle width="60" height="29" as="alternateBounds"/>
                    </mxGeometry>
                </mxCell>
                <mxCell id="20" value="" style="shape=partialRectangle;html=1;whiteSpace=wrap;connectable=0;fillColor=none;top=0;left=0;bottom=0;right=0;overflow=hidden;" vertex="1" parent="17">
                    <mxGeometry x="120" width="60" height="29" as="geometry">
                        <mxRectangle width="60" height="29" as="alternateBounds"/>
                    </mxGeometry>
                </mxCell>
                <mxCell id="82" style="shape=partialRectangle;html=1;whiteSpace=wrap;connectable=0;fillColor=none;top=0;left=0;bottom=0;right=0;overflow=hidden;" vertex="1" parent="17">
                    <mxGeometry x="180" width="60" height="29" as="geometry">
                        <mxRectangle width="60" height="29" as="alternateBounds"/>
                    </mxGeometry>
                </mxCell>
                <mxCell id="69" style="shape=partialRectangle;html=1;whiteSpace=wrap;connectable=0;fillColor=none;top=0;left=0;bottom=0;right=0;overflow=hidden;" vertex="1" parent="17">
                    <mxGeometry x="240" width="60" height="29" as="geometry">
                        <mxRectangle width="60" height="29" as="alternateBounds"/>
                    </mxGeometry>
                </mxCell>
                <mxCell id="96" value="" style="shape=tableRow;horizontal=0;startSize=0;swimlaneHead=0;swimlaneBody=0;top=0;left=0;bottom=0;right=0;collapsible=0;dropTarget=0;fillColor=none;points=[[0,0.5],[1,0.5]];portConstraint=eastwest;" vertex="1" parent="16">
                    <mxGeometry y="29" width="300" height="29" as="geometry"/>
                </mxCell>
                <mxCell id="97" value="m_1_0" style="shape=partialRectangle;html=1;whiteSpace=wrap;connectable=0;fillColor=none;top=0;left=0;bottom=0;right=0;overflow=hidden;" vertex="1" parent="96">
                    <mxGeometry width="60" height="29" as="geometry">
                        <mxRectangle width="60" height="29" as="alternateBounds"/>
                    </mxGeometry>
                </mxCell>
                <mxCell id="98" value="" style="shape=partialRectangle;html=1;whiteSpace=wrap;connectable=0;fillColor=none;top=0;left=0;bottom=0;right=0;overflow=hidden;" vertex="1" parent="96">
                    <mxGeometry x="60" width="60" height="29" as="geometry">
                        <mxRectangle width="60" height="29" as="alternateBounds"/>
                    </mxGeometry>
                </mxCell>
                <mxCell id="99" value="" style="shape=partialRectangle;html=1;whiteSpace=wrap;connectable=0;fillColor=none;top=0;left=0;bottom=0;right=0;overflow=hidden;" vertex="1" parent="96">
                    <mxGeometry x="120" width="60" height="29" as="geometry">
                        <mxRectangle width="60" height="29" as="alternateBounds"/>
                    </mxGeometry>
                </mxCell>
                <mxCell id="100" style="shape=partialRectangle;html=1;whiteSpace=wrap;connectable=0;fillColor=none;top=0;left=0;bottom=0;right=0;overflow=hidden;" vertex="1" parent="96">
                    <mxGeometry x="180" width="60" height="29" as="geometry">
                        <mxRectangle width="60" height="29" as="alternateBounds"/>
                    </mxGeometry>
                </mxCell>
                <mxCell id="101" style="shape=partialRectangle;html=1;whiteSpace=wrap;connectable=0;fillColor=none;top=0;left=0;bottom=0;right=0;overflow=hidden;" vertex="1" parent="96">
                    <mxGeometry x="240" width="60" height="29" as="geometry">
                        <mxRectangle width="60" height="29" as="alternateBounds"/>
                    </mxGeometry>
                </mxCell>
                <mxCell id="29" style="shape=tableRow;horizontal=0;startSize=0;swimlaneHead=0;swimlaneBody=0;top=0;left=0;bottom=0;right=0;collapsible=0;dropTarget=0;fillColor=none;points=[[0,0.5],[1,0.5]];portConstraint=eastwest;" vertex="1" parent="16">
                    <mxGeometry y="58" width="300" height="28" as="geometry"/>
                </mxCell>
                <mxCell id="30" style="shape=partialRectangle;html=1;whiteSpace=wrap;connectable=0;fillColor=none;top=0;left=0;bottom=0;right=0;overflow=hidden;" vertex="1" parent="29">
                    <mxGeometry width="60" height="28" as="geometry">
                        <mxRectangle width="60" height="28" as="alternateBounds"/>
                    </mxGeometry>
                </mxCell>
                <mxCell id="31" style="shape=partialRectangle;html=1;whiteSpace=wrap;connectable=0;fillColor=none;top=0;left=0;bottom=0;right=0;overflow=hidden;" vertex="1" parent="29">
                    <mxGeometry x="60" width="60" height="28" as="geometry">
                        <mxRectangle width="60" height="28" as="alternateBounds"/>
                    </mxGeometry>
                </mxCell>
                <mxCell id="32" style="shape=partialRectangle;html=1;whiteSpace=wrap;connectable=0;fillColor=none;top=0;left=0;bottom=0;right=0;overflow=hidden;" vertex="1" parent="29">
                    <mxGeometry x="120" width="60" height="28" as="geometry">
                        <mxRectangle width="60" height="28" as="alternateBounds"/>
                    </mxGeometry>
                </mxCell>
                <mxCell id="83" style="shape=partialRectangle;html=1;whiteSpace=wrap;connectable=0;fillColor=none;top=0;left=0;bottom=0;right=0;overflow=hidden;" vertex="1" parent="29">
                    <mxGeometry x="180" width="60" height="28" as="geometry">
                        <mxRectangle width="60" height="28" as="alternateBounds"/>
                    </mxGeometry>
                </mxCell>
                <mxCell id="70" style="shape=partialRectangle;html=1;whiteSpace=wrap;connectable=0;fillColor=none;top=0;left=0;bottom=0;right=0;overflow=hidden;" vertex="1" parent="29">
                    <mxGeometry x="240" width="60" height="28" as="geometry">
                        <mxRectangle width="60" height="28" as="alternateBounds"/>
                    </mxGeometry>
                </mxCell>
                <mxCell id="33" style="shape=tableRow;horizontal=0;startSize=0;swimlaneHead=0;swimlaneBody=0;top=0;left=0;bottom=0;right=0;collapsible=0;dropTarget=0;fillColor=none;points=[[0,0.5],[1,0.5]];portConstraint=eastwest;" vertex="1" parent="16">
                    <mxGeometry y="86" width="300" height="28" as="geometry"/>
                </mxCell>
                <mxCell id="34" style="shape=partialRectangle;html=1;whiteSpace=wrap;connectable=0;fillColor=none;top=0;left=0;bottom=0;right=0;overflow=hidden;" vertex="1" parent="33">
                    <mxGeometry width="60" height="28" as="geometry">
                        <mxRectangle width="60" height="28" as="alternateBounds"/>
                    </mxGeometry>
                </mxCell>
                <mxCell id="35" style="shape=partialRectangle;html=1;whiteSpace=wrap;connectable=0;fillColor=none;top=0;left=0;bottom=0;right=0;overflow=hidden;" vertex="1" parent="33">
                    <mxGeometry x="60" width="60" height="28" as="geometry">
                        <mxRectangle width="60" height="28" as="alternateBounds"/>
                    </mxGeometry>
                </mxCell>
                <mxCell id="36" style="shape=partialRectangle;html=1;whiteSpace=wrap;connectable=0;fillColor=none;top=0;left=0;bottom=0;right=0;overflow=hidden;" vertex="1" parent="33">
                    <mxGeometry x="120" width="60" height="28" as="geometry">
                        <mxRectangle width="60" height="28" as="alternateBounds"/>
                    </mxGeometry>
                </mxCell>
                <mxCell id="84" style="shape=partialRectangle;html=1;whiteSpace=wrap;connectable=0;fillColor=none;top=0;left=0;bottom=0;right=0;overflow=hidden;" vertex="1" parent="33">
                    <mxGeometry x="180" width="60" height="28" as="geometry">
                        <mxRectangle width="60" height="28" as="alternateBounds"/>
                    </mxGeometry>
                </mxCell>
                <mxCell id="71" style="shape=partialRectangle;html=1;whiteSpace=wrap;connectable=0;fillColor=none;top=0;left=0;bottom=0;right=0;overflow=hidden;" vertex="1" parent="33">
                    <mxGeometry x="240" width="60" height="28" as="geometry">
                        <mxRectangle width="60" height="28" as="alternateBounds"/>
                    </mxGeometry>
                </mxCell>
                <mxCell id="37" style="shape=tableRow;horizontal=0;startSize=0;swimlaneHead=0;swimlaneBody=0;top=0;left=0;bottom=0;right=0;collapsible=0;dropTarget=0;fillColor=none;points=[[0,0.5],[1,0.5]];portConstraint=eastwest;" vertex="1" parent="16">
                    <mxGeometry y="114" width="300" height="28" as="geometry"/>
                </mxCell>
                <mxCell id="38" style="shape=partialRectangle;html=1;whiteSpace=wrap;connectable=0;fillColor=none;top=0;left=0;bottom=0;right=0;overflow=hidden;" vertex="1" parent="37">
                    <mxGeometry width="60" height="28" as="geometry">
                        <mxRectangle width="60" height="28" as="alternateBounds"/>
                    </mxGeometry>
                </mxCell>
                <mxCell id="39" style="shape=partialRectangle;html=1;whiteSpace=wrap;connectable=0;fillColor=none;top=0;left=0;bottom=0;right=0;overflow=hidden;" vertex="1" parent="37">
                    <mxGeometry x="60" width="60" height="28" as="geometry">
                        <mxRectangle width="60" height="28" as="alternateBounds"/>
                    </mxGeometry>
                </mxCell>
                <mxCell id="40" style="shape=partialRectangle;html=1;whiteSpace=wrap;connectable=0;fillColor=none;top=0;left=0;bottom=0;right=0;overflow=hidden;" vertex="1" parent="37">
                    <mxGeometry x="120" width="60" height="28" as="geometry">
                        <mxRectangle width="60" height="28" as="alternateBounds"/>
                    </mxGeometry>
                </mxCell>
                <mxCell id="85" style="shape=partialRectangle;html=1;whiteSpace=wrap;connectable=0;fillColor=none;top=0;left=0;bottom=0;right=0;overflow=hidden;" vertex="1" parent="37">
                    <mxGeometry x="180" width="60" height="28" as="geometry">
                        <mxRectangle width="60" height="28" as="alternateBounds"/>
                    </mxGeometry>
                </mxCell>
                <mxCell id="72" style="shape=partialRectangle;html=1;whiteSpace=wrap;connectable=0;fillColor=none;top=0;left=0;bottom=0;right=0;overflow=hidden;" vertex="1" parent="37">
                    <mxGeometry x="240" width="60" height="28" as="geometry">
                        <mxRectangle width="60" height="28" as="alternateBounds"/>
                    </mxGeometry>
                </mxCell>
                <mxCell id="41" style="shape=tableRow;horizontal=0;startSize=0;swimlaneHead=0;swimlaneBody=0;top=0;left=0;bottom=0;right=0;collapsible=0;dropTarget=0;fillColor=none;points=[[0,0.5],[1,0.5]];portConstraint=eastwest;" vertex="1" parent="16">
                    <mxGeometry y="142" width="300" height="29" as="geometry"/>
                </mxCell>
                <mxCell id="42" style="shape=partialRectangle;html=1;whiteSpace=wrap;connectable=0;fillColor=none;top=0;left=0;bottom=0;right=0;overflow=hidden;" vertex="1" parent="41">
                    <mxGeometry width="60" height="29" as="geometry">
                        <mxRectangle width="60" height="29" as="alternateBounds"/>
                    </mxGeometry>
                </mxCell>
                <mxCell id="43" style="shape=partialRectangle;html=1;whiteSpace=wrap;connectable=0;fillColor=none;top=0;left=0;bottom=0;right=0;overflow=hidden;" vertex="1" parent="41">
                    <mxGeometry x="60" width="60" height="29" as="geometry">
                        <mxRectangle width="60" height="29" as="alternateBounds"/>
                    </mxGeometry>
                </mxCell>
                <mxCell id="44" style="shape=partialRectangle;html=1;whiteSpace=wrap;connectable=0;fillColor=none;top=0;left=0;bottom=0;right=0;overflow=hidden;" vertex="1" parent="41">
                    <mxGeometry x="120" width="60" height="29" as="geometry">
                        <mxRectangle width="60" height="29" as="alternateBounds"/>
                    </mxGeometry>
                </mxCell>
                <mxCell id="86" style="shape=partialRectangle;html=1;whiteSpace=wrap;connectable=0;fillColor=none;top=0;left=0;bottom=0;right=0;overflow=hidden;" vertex="1" parent="41">
                    <mxGeometry x="180" width="60" height="29" as="geometry">
                        <mxRectangle width="60" height="29" as="alternateBounds"/>
                    </mxGeometry>
                </mxCell>
                <mxCell id="73" style="shape=partialRectangle;html=1;whiteSpace=wrap;connectable=0;fillColor=none;top=0;left=0;bottom=0;right=0;overflow=hidden;" vertex="1" parent="41">
                    <mxGeometry x="240" width="60" height="29" as="geometry">
                        <mxRectangle width="60" height="29" as="alternateBounds"/>
                    </mxGeometry>
                </mxCell>
                <mxCell id="45" style="shape=tableRow;horizontal=0;startSize=0;swimlaneHead=0;swimlaneBody=0;top=0;left=0;bottom=0;right=0;collapsible=0;dropTarget=0;fillColor=none;points=[[0,0.5],[1,0.5]];portConstraint=eastwest;" vertex="1" parent="16">
                    <mxGeometry y="171" width="300" height="29" as="geometry"/>
                </mxCell>
                <mxCell id="46" style="shape=partialRectangle;html=1;whiteSpace=wrap;connectable=0;fillColor=none;top=0;left=0;bottom=0;right=0;overflow=hidden;" vertex="1" parent="45">
                    <mxGeometry width="60" height="29" as="geometry">
                        <mxRectangle width="60" height="29" as="alternateBounds"/>
                    </mxGeometry>
                </mxCell>
                <mxCell id="47" style="shape=partialRectangle;html=1;whiteSpace=wrap;connectable=0;fillColor=none;top=0;left=0;bottom=0;right=0;overflow=hidden;" vertex="1" parent="45">
                    <mxGeometry x="60" width="60" height="29" as="geometry">
                        <mxRectangle width="60" height="29" as="alternateBounds"/>
                    </mxGeometry>
                </mxCell>
                <mxCell id="48" style="shape=partialRectangle;html=1;whiteSpace=wrap;connectable=0;fillColor=none;top=0;left=0;bottom=0;right=0;overflow=hidden;" vertex="1" parent="45">
                    <mxGeometry x="120" width="60" height="29" as="geometry">
                        <mxRectangle width="60" height="29" as="alternateBounds"/>
                    </mxGeometry>
                </mxCell>
                <mxCell id="87" style="shape=partialRectangle;html=1;whiteSpace=wrap;connectable=0;fillColor=none;top=0;left=0;bottom=0;right=0;overflow=hidden;" vertex="1" parent="45">
                    <mxGeometry x="180" width="60" height="29" as="geometry">
                        <mxRectangle width="60" height="29" as="alternateBounds"/>
                    </mxGeometry>
                </mxCell>
                <mxCell id="74" style="shape=partialRectangle;html=1;whiteSpace=wrap;connectable=0;fillColor=none;top=0;left=0;bottom=0;right=0;overflow=hidden;" vertex="1" parent="45">
                    <mxGeometry x="240" width="60" height="29" as="geometry">
                        <mxRectangle width="60" height="29" as="alternateBounds"/>
                    </mxGeometry>
                </mxCell>
                <mxCell id="49" style="shape=tableRow;horizontal=0;startSize=0;swimlaneHead=0;swimlaneBody=0;top=0;left=0;bottom=0;right=0;collapsible=0;dropTarget=0;fillColor=none;points=[[0,0.5],[1,0.5]];portConstraint=eastwest;" vertex="1" parent="16">
                    <mxGeometry y="200" width="300" height="28" as="geometry"/>
                </mxCell>
                <mxCell id="50" style="shape=partialRectangle;html=1;whiteSpace=wrap;connectable=0;fillColor=none;top=0;left=0;bottom=0;right=0;overflow=hidden;" vertex="1" parent="49">
                    <mxGeometry width="60" height="28" as="geometry">
                        <mxRectangle width="60" height="28" as="alternateBounds"/>
                    </mxGeometry>
                </mxCell>
                <mxCell id="51" style="shape=partialRectangle;html=1;whiteSpace=wrap;connectable=0;fillColor=none;top=0;left=0;bottom=0;right=0;overflow=hidden;" vertex="1" parent="49">
                    <mxGeometry x="60" width="60" height="28" as="geometry">
                        <mxRectangle width="60" height="28" as="alternateBounds"/>
                    </mxGeometry>
                </mxCell>
                <mxCell id="52" style="shape=partialRectangle;html=1;whiteSpace=wrap;connectable=0;fillColor=none;top=0;left=0;bottom=0;right=0;overflow=hidden;" vertex="1" parent="49">
                    <mxGeometry x="120" width="60" height="28" as="geometry">
                        <mxRectangle width="60" height="28" as="alternateBounds"/>
                    </mxGeometry>
                </mxCell>
                <mxCell id="88" style="shape=partialRectangle;html=1;whiteSpace=wrap;connectable=0;fillColor=none;top=0;left=0;bottom=0;right=0;overflow=hidden;" vertex="1" parent="49">
                    <mxGeometry x="180" width="60" height="28" as="geometry">
                        <mxRectangle width="60" height="28" as="alternateBounds"/>
                    </mxGeometry>
                </mxCell>
                <mxCell id="75" style="shape=partialRectangle;html=1;whiteSpace=wrap;connectable=0;fillColor=none;top=0;left=0;bottom=0;right=0;overflow=hidden;" vertex="1" parent="49">
                    <mxGeometry x="240" width="60" height="28" as="geometry">
                        <mxRectangle width="60" height="28" as="alternateBounds"/>
                    </mxGeometry>
                </mxCell>
                <mxCell id="53" style="shape=tableRow;horizontal=0;startSize=0;swimlaneHead=0;swimlaneBody=0;top=0;left=0;bottom=0;right=0;collapsible=0;dropTarget=0;fillColor=none;points=[[0,0.5],[1,0.5]];portConstraint=eastwest;" vertex="1" parent="16">
                    <mxGeometry y="228" width="300" height="27" as="geometry"/>
                </mxCell>
                <mxCell id="54" style="shape=partialRectangle;html=1;whiteSpace=wrap;connectable=0;fillColor=none;top=0;left=0;bottom=0;right=0;overflow=hidden;" vertex="1" parent="53">
                    <mxGeometry width="60" height="27" as="geometry">
                        <mxRectangle width="60" height="27" as="alternateBounds"/>
                    </mxGeometry>
                </mxCell>
                <mxCell id="55" style="shape=partialRectangle;html=1;whiteSpace=wrap;connectable=0;fillColor=none;top=0;left=0;bottom=0;right=0;overflow=hidden;" vertex="1" parent="53">
                    <mxGeometry x="60" width="60" height="27" as="geometry">
                        <mxRectangle width="60" height="27" as="alternateBounds"/>
                    </mxGeometry>
                </mxCell>
                <mxCell id="56" style="shape=partialRectangle;html=1;whiteSpace=wrap;connectable=0;fillColor=none;top=0;left=0;bottom=0;right=0;overflow=hidden;" vertex="1" parent="53">
                    <mxGeometry x="120" width="60" height="27" as="geometry">
                        <mxRectangle width="60" height="27" as="alternateBounds"/>
                    </mxGeometry>
                </mxCell>
                <mxCell id="89" style="shape=partialRectangle;html=1;whiteSpace=wrap;connectable=0;fillColor=none;top=0;left=0;bottom=0;right=0;overflow=hidden;" vertex="1" parent="53">
                    <mxGeometry x="180" width="60" height="27" as="geometry">
                        <mxRectangle width="60" height="27" as="alternateBounds"/>
                    </mxGeometry>
                </mxCell>
                <mxCell id="76" style="shape=partialRectangle;html=1;whiteSpace=wrap;connectable=0;fillColor=none;top=0;left=0;bottom=0;right=0;overflow=hidden;" vertex="1" parent="53">
                    <mxGeometry x="240" width="60" height="27" as="geometry">
                        <mxRectangle width="60" height="27" as="alternateBounds"/>
                    </mxGeometry>
                </mxCell>
                <mxCell id="57" style="shape=tableRow;horizontal=0;startSize=0;swimlaneHead=0;swimlaneBody=0;top=0;left=0;bottom=0;right=0;collapsible=0;dropTarget=0;fillColor=none;points=[[0,0.5],[1,0.5]];portConstraint=eastwest;" vertex="1" parent="16">
                    <mxGeometry y="255" width="300" height="28" as="geometry"/>
                </mxCell>
                <mxCell id="58" style="shape=partialRectangle;html=1;whiteSpace=wrap;connectable=0;fillColor=none;top=0;left=0;bottom=0;right=0;overflow=hidden;" vertex="1" parent="57">
                    <mxGeometry width="60" height="28" as="geometry">
                        <mxRectangle width="60" height="28" as="alternateBounds"/>
                    </mxGeometry>
                </mxCell>
                <mxCell id="59" style="shape=partialRectangle;html=1;whiteSpace=wrap;connectable=0;fillColor=none;top=0;left=0;bottom=0;right=0;overflow=hidden;" vertex="1" parent="57">
                    <mxGeometry x="60" width="60" height="28" as="geometry">
                        <mxRectangle width="60" height="28" as="alternateBounds"/>
                    </mxGeometry>
                </mxCell>
                <mxCell id="60" style="shape=partialRectangle;html=1;whiteSpace=wrap;connectable=0;fillColor=none;top=0;left=0;bottom=0;right=0;overflow=hidden;" vertex="1" parent="57">
                    <mxGeometry x="120" width="60" height="28" as="geometry">
                        <mxRectangle width="60" height="28" as="alternateBounds"/>
                    </mxGeometry>
                </mxCell>
                <mxCell id="90" style="shape=partialRectangle;html=1;whiteSpace=wrap;connectable=0;fillColor=none;top=0;left=0;bottom=0;right=0;overflow=hidden;" vertex="1" parent="57">
                    <mxGeometry x="180" width="60" height="28" as="geometry">
                        <mxRectangle width="60" height="28" as="alternateBounds"/>
                    </mxGeometry>
                </mxCell>
                <mxCell id="77" style="shape=partialRectangle;html=1;whiteSpace=wrap;connectable=0;fillColor=none;top=0;left=0;bottom=0;right=0;overflow=hidden;" vertex="1" parent="57">
                    <mxGeometry x="240" width="60" height="28" as="geometry">
                        <mxRectangle width="60" height="28" as="alternateBounds"/>
                    </mxGeometry>
                </mxCell>
                <mxCell id="61" style="shape=tableRow;horizontal=0;startSize=0;swimlaneHead=0;swimlaneBody=0;top=0;left=0;bottom=0;right=0;collapsible=0;dropTarget=0;fillColor=none;points=[[0,0.5],[1,0.5]];portConstraint=eastwest;" vertex="1" parent="16">
                    <mxGeometry y="283" width="300" height="27" as="geometry"/>
                </mxCell>
                <mxCell id="62" style="shape=partialRectangle;html=1;whiteSpace=wrap;connectable=0;fillColor=none;top=0;left=0;bottom=0;right=0;overflow=hidden;" vertex="1" parent="61">
                    <mxGeometry width="60" height="27" as="geometry">
                        <mxRectangle width="60" height="27" as="alternateBounds"/>
                    </mxGeometry>
                </mxCell>
                <mxCell id="63" style="shape=partialRectangle;html=1;whiteSpace=wrap;connectable=0;fillColor=none;top=0;left=0;bottom=0;right=0;overflow=hidden;" vertex="1" parent="61">
                    <mxGeometry x="60" width="60" height="27" as="geometry">
                        <mxRectangle width="60" height="27" as="alternateBounds"/>
                    </mxGeometry>
                </mxCell>
                <mxCell id="64" style="shape=partialRectangle;html=1;whiteSpace=wrap;connectable=0;fillColor=none;top=0;left=0;bottom=0;right=0;overflow=hidden;" vertex="1" parent="61">
                    <mxGeometry x="120" width="60" height="27" as="geometry">
                        <mxRectangle width="60" height="27" as="alternateBounds"/>
                    </mxGeometry>
                </mxCell>
                <mxCell id="91" style="shape=partialRectangle;html=1;whiteSpace=wrap;connectable=0;fillColor=none;top=0;left=0;bottom=0;right=0;overflow=hidden;" vertex="1" parent="61">
                    <mxGeometry x="180" width="60" height="27" as="geometry">
                        <mxRectangle width="60" height="27" as="alternateBounds"/>
                    </mxGeometry>
                </mxCell>
                <mxCell id="78" style="shape=partialRectangle;html=1;whiteSpace=wrap;connectable=0;fillColor=none;top=0;left=0;bottom=0;right=0;overflow=hidden;" vertex="1" parent="61">
                    <mxGeometry x="240" width="60" height="27" as="geometry">
                        <mxRectangle width="60" height="27" as="alternateBounds"/>
                    </mxGeometry>
                </mxCell>
                <mxCell id="102" value="フレームの構造" style="swimlane;startSize=20;horizontal=1;containerType=tree;strokeColor=#FFFFFF;" vertex="1" parent="1">
                    <mxGeometry x="487" y="70" width="340" height="390" as="geometry"/>
                </mxCell>
                <mxCell id="103" value="" style="edgeStyle=elbowEdgeStyle;elbow=vertical;sourcePerimeterSpacing=0;targetPerimeterSpacing=0;startArrow=none;endArrow=none;rounded=0;curved=0;" edge="1" parent="102" source="104" target="105">
                    <mxGeometry relative="1" as="geometry"/>
                </mxCell>
                <mxCell id="108" style="edgeStyle=elbowEdgeStyle;html=1;startArrow=none;endArrow=none;exitX=0.5;exitY=1;exitDx=0;exitDy=0;entryX=0.5;entryY=0;entryDx=0;entryDy=0;" edge="1" parent="102" source="104" target="106">
                    <mxGeometry relative="1" as="geometry"/>
                </mxCell>
                <mxCell id="109" style="edgeStyle=orthogonalEdgeStyle;html=1;startArrow=none;endArrow=none;exitX=0.5;exitY=1;exitDx=0;exitDy=0;entryX=0.5;entryY=0;entryDx=0;entryDy=0;rounded=0;" edge="1" parent="102" source="104" target="107">
                    <mxGeometry relative="1" as="geometry"/>
                </mxCell>
                <mxCell id="104" value="root:FrameInfo" style="whiteSpace=wrap;html=1;treeFolding=1;treeMoving=1;newEdgeStyle={&quot;edgeStyle&quot;:&quot;elbowEdgeStyle&quot;,&quot;startArrow&quot;:&quot;none&quot;,&quot;endArrow&quot;:&quot;none&quot;};fontStyle=4" vertex="1" parent="102">
                    <mxGeometry x="110" y="50" width="120" height="40" as="geometry"/>
                </mxCell>
                <mxCell id="118" style="edgeStyle=orthogonalEdgeStyle;rounded=0;html=1;startArrow=none;endArrow=none;exitX=0.5;exitY=1;exitDx=0;exitDy=0;entryX=0.5;entryY=0;entryDx=0;entryDy=0;" edge="1" parent="102" source="105" target="115">
                    <mxGeometry relative="1" as="geometry"/>
                </mxCell>
                <mxCell id="105" value="head frame" style="whiteSpace=wrap;html=1;treeFolding=1;treeMoving=1;newEdgeStyle={&quot;edgeStyle&quot;:&quot;elbowEdgeStyle&quot;,&quot;startArrow&quot;:&quot;none&quot;,&quot;endArrow&quot;:&quot;none&quot;};fontStyle=4" vertex="1" parent="102">
                    <mxGeometry x="20" y="140" width="90" height="40" as="geometry"/>
                </mxCell>
                <mxCell id="106" value="cource frame" style="whiteSpace=wrap;html=1;treeFolding=1;treeMoving=1;newEdgeStyle={&quot;edgeStyle&quot;:&quot;elbowEdgeStyle&quot;,&quot;startArrow&quot;:&quot;none&quot;,&quot;endArrow&quot;:&quot;none&quot;};fontStyle=4" vertex="1" parent="102">
                    <mxGeometry x="130" y="140" width="80" height="40" as="geometry"/>
                </mxCell>
                <mxCell id="107" value="main frame" style="whiteSpace=wrap;html=1;treeFolding=1;treeMoving=1;newEdgeStyle={&quot;edgeStyle&quot;:&quot;elbowEdgeStyle&quot;,&quot;startArrow&quot;:&quot;none&quot;,&quot;endArrow&quot;:&quot;none&quot;};fontStyle=4" vertex="1" parent="102">
                    <mxGeometry x="230" y="140" width="80" height="40" as="geometry"/>
                </mxCell>
                <mxCell id="115" value="h1" style="whiteSpace=wrap;html=1;treeFolding=1;treeMoving=1;newEdgeStyle={&quot;edgeStyle&quot;:&quot;elbowEdgeStyle&quot;,&quot;startArrow&quot;:&quot;none&quot;,&quot;endArrow&quot;:&quot;none&quot;};fontStyle=4" vertex="1" parent="102">
                    <mxGeometry x="10" y="220" width="30" height="40" as="geometry"/>
                </mxCell>
                <mxCell id="116" value="h2" style="whiteSpace=wrap;html=1;treeFolding=1;treeMoving=1;newEdgeStyle={&quot;edgeStyle&quot;:&quot;elbowEdgeStyle&quot;,&quot;startArrow&quot;:&quot;none&quot;,&quot;endArrow&quot;:&quot;none&quot;};fontStyle=4" vertex="1" parent="102">
                    <mxGeometry x="50" y="220" width="30" height="40" as="geometry"/>
                </mxCell>
                <mxCell id="117" value="h3" style="whiteSpace=wrap;html=1;treeFolding=1;treeMoving=1;newEdgeStyle={&quot;edgeStyle&quot;:&quot;elbowEdgeStyle&quot;,&quot;startArrow&quot;:&quot;none&quot;,&quot;endArrow&quot;:&quot;none&quot;};fontStyle=4" vertex="1" parent="102">
                    <mxGeometry x="93" y="220" width="30" height="40" as="geometry"/>
                </mxCell>
                <mxCell id="119" style="edgeStyle=orthogonalEdgeStyle;rounded=0;html=1;startArrow=none;endArrow=none;exitX=0.5;exitY=1;exitDx=0;exitDy=0;entryX=0.5;entryY=0;entryDx=0;entryDy=0;" edge="1" parent="102" source="105" target="116">
                    <mxGeometry relative="1" as="geometry">
                        <mxPoint x="75" y="190" as="sourcePoint"/>
                        <mxPoint x="45" y="230" as="targetPoint"/>
                    </mxGeometry>
                </mxCell>
                <mxCell id="120" style="edgeStyle=orthogonalEdgeStyle;rounded=0;html=1;startArrow=none;endArrow=none;exitX=0.5;exitY=1;exitDx=0;exitDy=0;entryX=0.5;entryY=0;entryDx=0;entryDy=0;" edge="1" parent="102" source="105" target="117">
                    <mxGeometry relative="1" as="geometry">
                        <mxPoint x="75" y="190" as="sourcePoint"/>
                        <mxPoint x="105" y="230" as="targetPoint"/>
                    </mxGeometry>
                </mxCell>
                <mxCell id="121" value="c1" style="whiteSpace=wrap;html=1;treeFolding=1;treeMoving=1;newEdgeStyle={&quot;edgeStyle&quot;:&quot;elbowEdgeStyle&quot;,&quot;startArrow&quot;:&quot;none&quot;,&quot;endArrow&quot;:&quot;none&quot;};fontStyle=4" vertex="1" parent="102">
                    <mxGeometry x="133" y="220" width="30" height="40" as="geometry"/>
                </mxCell>
                <mxCell id="122" value="c2" style="whiteSpace=wrap;html=1;treeFolding=1;treeMoving=1;newEdgeStyle={&quot;edgeStyle&quot;:&quot;elbowEdgeStyle&quot;,&quot;startArrow&quot;:&quot;none&quot;,&quot;endArrow&quot;:&quot;none&quot;};fontStyle=4" vertex="1" parent="102">
                    <mxGeometry x="180" y="220" width="30" height="40" as="geometry"/>
                </mxCell>
                <mxCell id="123" style="edgeStyle=orthogonalEdgeStyle;rounded=0;html=1;startArrow=none;endArrow=none;exitX=0.5;exitY=1;exitDx=0;exitDy=0;entryX=0.5;entryY=0;entryDx=0;entryDy=0;" edge="1" parent="102" source="106" target="121">
                    <mxGeometry relative="1" as="geometry">
                        <mxPoint x="75" y="190" as="sourcePoint"/>
                        <mxPoint x="35" y="230" as="targetPoint"/>
                    </mxGeometry>
                </mxCell>
                <mxCell id="124" style="edgeStyle=orthogonalEdgeStyle;rounded=0;html=1;startArrow=none;endArrow=none;exitX=0.5;exitY=1;exitDx=0;exitDy=0;entryX=0.5;entryY=0;entryDx=0;entryDy=0;" edge="1" parent="102" source="106" target="122">
                    <mxGeometry relative="1" as="geometry">
                        <mxPoint x="180" y="190" as="sourcePoint"/>
                        <mxPoint x="158" y="230" as="targetPoint"/>
                    </mxGeometry>
                </mxCell>
                <mxCell id="111" style="rounded=1;html=1;startArrow=none;endArrow=classic;exitX=0.25;exitY=0;exitDx=0;exitDy=0;endFill=1;dashed=1;entryX=1;entryY=0.043;entryDx=0;entryDy=0;entryPerimeter=0;" edge="1" parent="1" source="104" target="95">
                    <mxGeometry relative="1" as="geometry"/>
                </mxCell>
                <mxCell id="112" style="edgeStyle=orthogonalEdgeStyle;rounded=1;html=1;startArrow=none;endArrow=classic;exitX=0.25;exitY=0;exitDx=0;exitDy=0;entryX=1;entryY=0.5;entryDx=0;entryDy=0;endFill=1;dashed=1;curved=1;" edge="1" parent="1" source="105" target="11">
                    <mxGeometry relative="1" as="geometry">
                        <mxPoint x="600" y="150" as="sourcePoint"/>
                        <mxPoint x="413.96000000000004" y="117.79999999999995" as="targetPoint"/>
                    </mxGeometry>
                </mxCell>
                <mxCell id="113" style="edgeStyle=orthogonalEdgeStyle;rounded=1;html=1;startArrow=none;endArrow=classic;exitX=0.25;exitY=0;exitDx=0;exitDy=0;entryX=1;entryY=0.5;entryDx=0;entryDy=0;endFill=1;dashed=1;curved=1;" edge="1" parent="1" source="106" target="15">
                    <mxGeometry relative="1" as="geometry">
                        <mxPoint x="510" y="240" as="sourcePoint"/>
                        <mxPoint x="250" y="120" as="targetPoint"/>
                    </mxGeometry>
                </mxCell>
                <mxCell id="114" style="edgeStyle=orthogonalEdgeStyle;rounded=1;html=1;startArrow=none;endArrow=classic;exitX=0.25;exitY=0;exitDx=0;exitDy=0;entryX=1.013;entryY=0.31;entryDx=0;entryDy=0;endFill=1;dashed=1;curved=1;entryPerimeter=0;" edge="1" parent="1" source="107" target="17">
                    <mxGeometry relative="1" as="geometry">
                        <mxPoint x="510" y="240" as="sourcePoint"/>
                        <mxPoint x="250" y="120" as="targetPoint"/>
                    </mxGeometry>
                </mxCell>
                <mxCell id="130" value="FrameInfo" style="swimlane;fontStyle=1;align=center;verticalAlign=top;childLayout=stackLayout;horizontal=1;startSize=26;horizontalStack=0;resizeParent=1;resizeParentMax=0;resizeLast=0;collapsible=1;marginBottom=0;strokeColor=#FFFFFF;" vertex="1" parent="1">
                    <mxGeometry x="520" y="560" width="220" height="164" as="geometry">
                        <mxRectangle x="200" y="551" width="100" height="30" as="alternateBounds"/>
                    </mxGeometry>
                </mxCell>
                <mxCell id="134" value="+ name : str" style="text;strokeColor=none;fillColor=none;align=left;verticalAlign=top;spacingLeft=4;spacingRight=4;overflow=hidden;rotatable=0;points=[[0,0.5],[1,0.5]];portConstraint=eastwest;" vertex="1" parent="130">
                    <mxGeometry y="26" width="220" height="26" as="geometry"/>
                </mxCell>
                <mxCell id="135" value="+ rect : [x, y, w, h]" style="text;strokeColor=none;fillColor=none;align=left;verticalAlign=top;spacingLeft=4;spacingRight=4;overflow=hidden;rotatable=0;points=[[0,0.5],[1,0.5]];portConstraint=eastwest;" vertex="1" parent="130">
                    <mxGeometry y="52" width="220" height="26" as="geometry"/>
                </mxCell>
                <mxCell id="131" value="+ parent : FrameInfo" style="text;strokeColor=none;fillColor=none;align=left;verticalAlign=top;spacingLeft=4;spacingRight=4;overflow=hidden;rotatable=0;points=[[0,0.5],[1,0.5]];portConstraint=eastwest;" vertex="1" parent="130">
                    <mxGeometry y="78" width="220" height="26" as="geometry"/>
                </mxCell>
                <mxCell id="136" value="+ children : dict(name, FrameInfo)" style="text;strokeColor=none;fillColor=none;align=left;verticalAlign=top;spacingLeft=4;spacingRight=4;overflow=hidden;rotatable=0;points=[[0,0.5],[1,0.5]];portConstraint=eastwest;" vertex="1" parent="130">
                    <mxGeometry y="104" width="220" height="26" as="geometry"/>
                </mxCell>
                <mxCell id="132" value="" style="line;strokeWidth=1;fillColor=none;align=left;verticalAlign=middle;spacingTop=-1;spacingLeft=3;spacingRight=3;rotatable=0;labelPosition=right;points=[];portConstraint=eastwest;strokeColor=inherit;" vertex="1" parent="130">
                    <mxGeometry y="130" width="220" height="8" as="geometry"/>
                </mxCell>
                <mxCell id="133" value="+ abs_rect() -&gt; [x, y, w, h]" style="text;strokeColor=none;fillColor=none;align=left;verticalAlign=top;spacingLeft=4;spacingRight=4;overflow=hidden;rotatable=0;points=[[0,0.5],[1,0.5]];portConstraint=eastwest;" vertex="1" parent="130">
                    <mxGeometry y="138" width="220" height="26" as="geometry"/>
                </mxCell>
            </root>
        </mxGraphModel>
    </diagram>
</mxfile>